# xmcd
#
# Track frame offsets:
#	150
#	16272
#	32009
#	46802
#	61288
#	78455
#	94331
#	110418
#	128541
#	145395
#	154480
#	170883
#	188106
#	202395
#	214409
#	225479
#
# Disc length: 3250 seconds
#
# Revision: 4
# Processed by: cddbd v1.5.1PL0 Copyright (c) Steve Scherf et al.
# Submitted via: audiograbber 1.83.01
#
DISCID=e70cb010
DTITLE=1997-12 Country Radio - 1997-12 Country Radio
DYEAR=1997
DGENRE=Country
TTITLE0=Shania Twain - Don't be stupid (You know I love you)
TTITLE1=Tim McGraw - Just to see you smile
TTITLE2=Mark Chesnutt - It's not over
TTITLE3=Wynonna - Come some rainy day
TTITLE4=Bryan White - One small miracle
TTITLE5=Lee Ann Womack - You've got to talk to me
TTITLE6=David Kersh - If I never stop lovin' you
TTITLE7=Mila Mason - Closer to heaven
TTITLE8=JC Jones - One night
TTITLE9=Sara Evens - Shame about that
TTITLE10=Rodney Adkins - God only knows
TTITLE11=Melodie Crittendon - Broken road
TTITLE12=Rhett Akins - More than everything
TTITLE13=Chely Wright - Just another heartache
TTITLE14=David Morgan - I wear the pants
TTITLE15=Clint Black - Something that we do
EXTD=
EXTT0=
EXTT1=
EXTT2=
EXTT3=
EXTT4=
EXTT5=
EXTT6=
EXTT7=
EXTT8=
EXTT9=
EXTT10=
EXTT11=
EXTT12=
EXTT13=
EXTT14=
EXTT15=
PLAYORDER=
